<?xml version="1.0" encoding="utf-8"?>
<svg xmlns="http://www.w3.org/2000/svg" data-name="레이어 1" id="__1" viewBox="0 0 450.01 138.02">
  <defs>
    <style>
      .cls-1 {
        fill: none;
      }

      .cls-2 {
        fill: #00598a;
      }

      .cls-3 {
        fill: url(#linear-gradient-2);
      }

      .cls-4 {
        fill: url(#linear-gradient);
      }

      .cls-5 {
        clip-path: url(#clippath);
      }
    </style>
    <clipPath id="clippath">
      <path class="cls-1" d="M202.82,8.11h-40.47l-10.15,7.55-7.46-7.55h-40.47l-16.97,12.63-10.03,56.49,12.48,12.62h40.47l10.15-7.55,7.47,7.55h40.47l16.97-12.62,10.03-56.49-12.48-12.63ZM133.65,29.1l-7.09,39.91c-.1.55-.63,1-1.18,1h-23.72c-.55,0-.93-.45-.83-1l7.09-39.91c.1-.55.63-1,1.18-1h23.73c.55,0,.92.45.82,1ZM191.74,29.1l-7.09,39.91c-.1.55-.63,1-1.18,1h-23.72c-.55,0-.92-.45-.83-1l7.09-39.91c.1-.55.63-1,1.18-1h23.73c.55,0,.92.45.82,1Z"/>
    </clipPath>
    <linearGradient gradientUnits="userSpaceOnUse" id="linear-gradient" x1="54.37" x2="181.65" y1="100.77" y2="47.04">
      <stop offset="0" stop-color="#005975"/>
      <stop offset="1" stop-color="#4bc0f0"/>
    </linearGradient>
    <linearGradient gradientUnits="userSpaceOnUse" id="linear-gradient-2" x1="189.54" x2="77.85" y1="20.44" y2="88.01">
      <stop offset="0" stop-color="#c4d700"/>
      <stop offset=".3" stop-color="#95c636"/>
      <stop offset="1" stop-color="#005b77"/>
    </linearGradient>
  </defs>
  <path class="cls-2" d="M330.01,121.34c-1.02,7.23-4.52,12.67-10.01,15.2-2.28,1.06-4.32,1.48-7.27,1.48-5.33,0-8.6-1.34-10.85-4.51-2.25-3.13-3.05-7.19-2.39-11.89.97-6.91,4.64-12.44,10.08-14.97,2.22-1.01,4.9-1.57,7.54-1.57,9.4,0,14.32,6.22,12.91,16.27M310.34,113.42c-1.49,1.94-2.42,4.57-2.93,8.19-.73,5.17-.17,8.41,1.79,9.7,1.02.69,2.4,1.03,4.07,1.03,4.93,0,7.46-3.19,8.53-10.82.43-3.06.43-5.26.06-6.94-.35-1.51-1.9-3.8-5.67-3.8-2.39,0-4.62,1.03-5.86,2.63"/>
  <path class="cls-2" d="M233.64,112.72c-1.61-1.19-3.26-1.92-5.88-1.92-2.39,0-4.84.84-6.35,2.53-1.63,1.83-2.55,4.02-3.07,7.71-.61,4.33-.5,6.44.32,8.17,1.1,2.33,3.32,3.12,6.37,3.12,2.09,0,4.01-.34,6.31-1.84l2.61,4.56c-3.09,2.05-6.21,2.97-10.22,2.97-4.88,0-8.44-1.42-10.92-4.38-2.44-2.87-3.33-6.71-2.67-11.36.56-3.97,1.76-7.12,3.77-9.85,3.39-4.61,8.86-7.35,14.55-7.35,4.36,0,7.33,1.35,9.05,2.86l-3.87,4.79Z"/>
  <path class="cls-2" d="M400.81,112.72c-1.61-1.19-3.26-1.92-5.88-1.92-2.39,0-4.84.84-6.35,2.53-1.63,1.83-2.55,4.02-3.07,7.71-.61,4.33-.5,6.44.33,8.17,1.1,2.33,3.32,3.12,6.37,3.12,2.09,0,4.01-.34,6.31-1.84l2.61,4.56c-3.09,2.05-6.21,2.97-10.22,2.97-4.88,0-8.44-1.42-10.92-4.38-2.44-2.87-3.33-6.71-2.67-11.36.56-3.97,1.76-7.12,3.77-9.85,3.39-4.61,8.86-7.35,14.55-7.35,4.36,0,7.33,1.35,9.05,2.86l-3.87,4.79Z"/>
  <g>
    <polygon class="cls-2" points="428.98 9.29 422.08 48.12 401.89 9.29 382.15 9.29 368.04 88.74 388.91 88.74 395.84 49.72 415.99 88.74 435.9 88.74 450.01 9.29 428.98 9.29"/>
    <path class="cls-2" d="M48.14,66.63L9.27,43.77l4.08-22.98,16.76-11.6h47.73l-3.54,19.91h-39.62c-1.31,0-1.66,1.56-.36,2.04l38.9,22.34-4.53,25.54-14.03,9.76H0l3.54-19.91h43.85c1.7,0,2.21-1.27.76-2.24Z"/>
    <path class="cls-2" d="M259.39,66.63l-38.87-22.86,4.08-22.98,16.76-11.6h47.73l-3.54,19.91h-39.62c-1.31,0-1.66,1.56-.36,2.04l38.9,22.34-4.53,25.54-14.03,9.76h-54.65l3.54-19.91h43.85c1.7,0,2.21-1.27.76-2.24Z"/>
    <path class="cls-2" d="M339.52,88.81h23.18l-13.14-79.57h-27.37l-41.41,79.57h23.18l6.99-14.12h26.58l1.98,14.12ZM334.87,55.73h-14.52l11.32-22.84,3.2,22.84Z"/>
    <path class="cls-2" d="M202.82,8.11h-40.47l-10.15,7.55-7.46-7.55h-40.47l-16.97,12.63-10.03,56.49,12.48,12.62h40.47l10.15-7.55,7.47,7.55h40.47l16.97-12.62,10.03-56.49-12.48-12.63ZM133.65,29.1l-7.09,39.91c-.1.55-.63,1-1.18,1h-23.72c-.55,0-.93-.45-.83-1l7.09-39.91c.1-.55.63-1,1.18-1h23.73c.55,0,.92.45.82,1ZM191.74,29.1l-7.09,39.91c-.1.55-.63,1-1.18,1h-23.72c-.55,0-.92-.45-.83-1l7.09-39.91c.1-.55.63-1,1.18-1h23.73c.55,0,.92.45.82,1Z"/>
    <g class="cls-5">
      <polygon class="cls-4" points="216.93 18.2 80.83 89.85 86.42 90.56 215.3 46.79 216.93 18.2"/>
      <polygon class="cls-3" points="84.78 87.72 81.88 84.34 196.48 0 219.24 18.71 84.78 87.72"/>
    </g>
  </g>
  <polygon class="cls-2" points="265.08 105.61 264.3 111.13 251.09 111.13 250.14 117.89 261.94 117.89 261.17 123.41 249.47 123.41 248.26 131.94 261.96 131.94 261.18 137.48 240.08 137.48 244.56 105.61 265.08 105.61"/>
  <path class="cls-2" d="M405.12,133.49l4.31-4.98c2.23,2.1,6.18,3.82,9.27,3.82,3.29,0,4.93-1.47,5.2-3.44.28-1.96-.95-2.99-3.92-4.19l-4.23-1.8c-3.38-1.33-7.02-4-6.37-8.64.72-5.19,6.65-9.18,13.78-9.18,4.09,0,8.21,1.36,10.7,3.98l-3.64,4.5c-2-1.67-4.47-2.77-7.85-2.76-3.09,0-4.71,1.35-4.97,3.19-.38,2.71,4.78,4.15,7.16,5.16,3.46,1.48,8.28,3.64,7.48,9.27-.73,5.19-6.14,9.61-14.27,9.61-4.7,0-9.63-1.57-12.64-4.53"/>
  <polygon class="cls-2" points="373.8 105.61 369.32 137.48 361.91 137.48 366.38 105.61 373.8 105.61"/>
  <polygon class="cls-2" points="360.52 105.61 359.75 111.14 350.32 111.14 346.62 137.48 339.19 137.48 342.9 111.14 333.59 111.14 334.37 105.61 360.52 105.61"/>
  <path class="cls-2" d="M273.41,105.59c1.81-.24,6.18-.4,9.82-.34,4.46.08,7.13.39,9.28,1.82,2.09,1.24,3.41,3.48,3,6.41-.4,2.88-2.46,5.54-6.29,6.82l-.02.1c3.55,1.07,5.89,3.9,5.31,8.09-.41,2.93-1.84,5.28-4.09,6.87-2.76,1.94-7.2,2.59-13.63,2.48-3.6-.06-6.22-.22-7.84-.38l4.46-31.87ZM277.02,132.33c.71.11,1.85.12,3.1.14,3.31.06,6.38-1,6.86-4.41.46-3.27-2.28-4.47-5.93-4.54l-2.78-.04-1.25,8.84ZM278.95,117.97l2.64.04c3.83.07,6.12-1.34,6.46-3.74.34-2.45-1.35-3.64-4.65-3.7-1.58-.03-2.79.05-3.43.14l-1.02,7.26Z"/>
</svg>